<?xml version="1.0" encoding="utf-8"?>
<!-- Generator: Adobe Illustrator 25.0.1, SVG Export Plug-In . SVG Version: 6.00 Build 0)  -->
<svg version="1.0" id="katman_1" xmlns="http://www.w3.org/2000/svg" xmlns:xlink="http://www.w3.org/1999/xlink" x="0px" y="0px"
	 viewBox="0 0 560 400" style="enable-background:new 0 0 560 400;" xml:space="preserve">
<g transform="matrix(2.89792 0 0 2.89792 100.052 105.682)">
	<path d="M130.7,38.4h3.6V23.7h-3.6V38.4z M126.9,25.2h9.8c0.8,0,1,0,1.5-0.3c0.3-0.3,0.5-0.8,0.5-1.3v-0.8c0-0.3,0-0.5-0.3-0.8
		h-11.6V25.2z M124.6,22.1h-1.3c-0.8,0-1.3,0.3-1.5,0.5c-0.3,0.3-0.5,0.8-0.5,1.8v8c0,0.8,0,1.6,0.3,2.3h-0.3l-1,3.9h3.3
		c0.5,0,0.8,0,1-0.3V22.1z M120.5,38.4l3.1-2.1l-1.8-2.1c-0.3-0.5-0.5-1-0.8-1.6c-0.3-0.5-0.5-1.3-0.8-2.1l-3.9-8.8l-2.8,2.3
		l1.8,2.1c0.3,0.5,0.3,1,0.5,1.6c0.3,0.5,0.5,1.3,0.8,1.8L120.5,38.4z M112,38.4h3.3V28.4c0-0.8,0-1.6-0.3-2.3h0.3l1-4.1H113
		c-0.5,0-0.8,0-1,0.3V38.4z M97.6,35.1h9.8l-1-2.8h-7.7L97.6,35.1z M95.3,38.2c0.3,0.3,0.5,0.3,1,0.3h2.6l2.6-8.5
		c0-0.5,0.3-0.8,0.5-1.3c0.3-0.5,0.3-1,0.5-1.6c0-0.5,0.3-1,0.3-1.6h0.3c0.3,0.8,0.5,1.6,0.8,2.6c0.3,0.8,0.5,1.6,0.8,2.3l1.8,6.5
		c0.3,0.8,0.5,1.3,0.8,1.6c0.3,0.3,0.8,0.5,1.3,0.5h1c0.5,0,0.8-0.3,1-0.3l-5.1-16h-4.1L95.3,38.2z M93.7,22.1h-3.6v10.3
		c0,1-0.3,2.1-0.5,2.6c-0.5,0.5-1,0.8-2.1,0.8c-1,0-1.8-0.3-2.1-0.8C85,34.6,85,33.8,85,32.5v-8.3c0-0.8-0.3-1.3-0.5-1.8
		c-0.3-0.3-0.8-0.5-1.5-0.5h-1.3l-0.3,0.3v10.3c0,1.3,0.3,2.6,0.8,3.4c0.5,1,1.3,1.6,2.1,2.1c1,0.5,2.1,0.8,3.3,0.8s2.6-0.3,3.3-0.8
		c1-0.5,1.8-1.3,2.1-2.1c0.5-1,0.8-2.1,0.8-3.4V22.1z"/>
	<path d="M2.2-2.7l20.3,23.8l13.6-8c0,0-16.4-22-20.8-20.4C11.2-5.8,2.2-2.7,2.2-2.7z"/>
	<path d="M36.7,13.1c0,0,3.1-5.4,4.6-12.7c0,0,15.4,6.2,9.5,21.7L36.7,13.1z"/>
	<path d="M50.8,22.1l1.3,16.3l5.9-0.8c0,0,1.5-0.5,1.3-3.4c-0.3-3.1-0.8-9.6-0.8-9.6s0.3-1.6-3.3-2.1C50.8,21.9,50.8,22.1,50.8,22.1
		z"/>
	<path d="M52.1,38.4L40.3,48l5.4,10.6c0,0,1.3,4.1,5.1-0.5c3.6-4.7,5.1-5.4,4.9-8.3C55.4,47,54.7,40.2,52.1,38.4L52.1,38.4z"/>
	<path d="M40,48l-16.2-7.2L9.7,69.5c0,0-1,2.1,2.6,2.3c3.6,0.5,9.5,1.8,12.6-1.3C27.9,67.7,40,48,40,48z"/>
	<path d="M23.8,40.5l-1.5-19.1l-35,2.3c0,0-2.1,0.3-1.8,4.1c0.3,5.2,0.8,10.9,0.8,10.9S-14,41-9.3,41.3
		C-4.7,41.5,23.3,41.5,23.8,40.5L23.8,40.5z"/>
	<path d="M78.6,30.2c0-1.3-0.3-2.3-0.5-3.4c-0.3-1-0.8-1.8-1.3-2.6c-0.5-0.8-1.3-1.3-2.1-1.8c-0.8-0.5-1.8-0.5-3.1-0.5
		c-1.5,0-2.8,0.3-3.9,1c-1,0.8-1.8,1.8-2.3,2.8c-0.5,1.3-0.8,2.8-0.8,4.4c0,1.3,0.3,2.3,0.5,3.4c0.3,1,0.8,1.8,1.3,2.6
		c0.5,0.8,1.3,1.3,2.1,1.8c0.8,0.5,1.8,0.5,3.1,0.5h1c-0.5-0.8-1.3-1.8-1.8-2.8c-0.3,0-0.5-0.3-0.8-0.5c-0.5-0.3-0.8-0.8-1-1.3
		c-0.3-0.5-0.3-1.3-0.5-1.8v-4.1c0-0.8,0.3-1.3,0.5-1.8c0.3-0.5,0.5-1,1-1.3c0.5-0.3,1-0.5,1.8-0.5c0.8,0,1.3,0.3,1.8,0.5
		c0.5,0.3,0.8,0.8,1,1.3c0.3,0.5,0.3,1.3,0.5,1.8V32l2.1,4.4c0.5-0.5,0.8-1,1-1.8C78.3,33.5,78.6,32,78.6,30.2z"/>
	<path d="M70.6,33.3l3.6-1.8l3.1,6.7c0,0,0.3,0.5-0.5,0.5c-0.8,0-2.1,0.5-2.8-0.3C73.2,37.9,70.6,33.3,70.6,33.3z"/>
</g>
</svg>
