<?xml version="1.0" standalone="no"?>
<!DOCTYPE svg PUBLIC "-//W3C//DTD SVG 20010904//EN"
 "http://www.w3.org/TR/2001/REC-SVG-20010904/DTD/svg10.dtd">
<svg version="1.0" xmlns="http://www.w3.org/2000/svg"
 width="1200.000000pt" height="630.000000pt" viewBox="0 0 1200.000000 630.000000"
 preserveAspectRatio="xMidYMid meet">

<g transform="translate(0.000000,630.000000) scale(0.100000,-0.100000)"
fill="#000000" stroke="none">
<path d="M3692 4781 c-162 -60 -295 -111 -297 -113 -1 -1 197 -236 442 -521
l444 -518 37 23 c21 13 154 93 295 178 142 85 256 160 255 167 -4 16 -184 242
-315 396 -127 149 -328 354 -405 414 -54 41 -131 83 -153 82 -5 0 -142 -49
-303 -108z"/>
<path d="M5085 4518 c-2 -7 -17 -62 -34 -121 -35 -119 -88 -261 -132 -350
l-29 -57 57 -37 c351 -225 558 -352 565 -345 4 4 17 44 29 87 32 121 30 274
-4 381 -57 173 -205 338 -384 428 -60 30 -62 30 -68 14z"/>
<path d="M3484 3576 c-571 -39 -766 -55 -778 -66 -51 -41 -58 -95 -41 -325 28
-372 25 -359 98 -397 38 -20 64 -22 297 -30 397 -14 1242 10 1268 36 3 3 -5
133 -17 288 -38 470 -46 541 -56 543 -5 2 -353 -21 -771 -49z"/>
<path d="M6380 3603 c-74 -13 -106 -28 -150 -69 -85 -80 -124 -220 -102 -374
27 -186 112 -278 270 -288 l74 -5 -44 66 c-23 37 -48 67 -55 67 -19 0 -60 60
-72 105 -16 58 -14 213 4 272 21 70 61 103 124 103 95 0 132 -62 137 -231 3
-101 5 -111 44 -195 l41 -89 20 23 c35 43 59 146 59 251 0 178 -56 290 -170
339 -47 21 -137 33 -180 25z"/>
<path d="M6844 3586 c-3 -8 -4 -131 -2 -273 3 -220 6 -264 21 -298 43 -96 127
-145 251 -145 105 0 151 15 207 70 72 69 79 104 79 400 l0 247 -44 6 c-23 4
-59 4 -80 0 l-36 -6 0 -251 c0 -293 -4 -310 -77 -336 -38 -13 -48 -13 -85 0
-68 24 -72 39 -78 310 -3 129 -9 243 -13 252 -17 34 -132 53 -143 24z"/>
<path d="M7730 3593 l-36 -4 -113 -342 c-62 -188 -114 -346 -115 -351 -2 -15
89 -29 121 -19 23 8 30 20 48 79 l21 69 120 3 121 3 16 -60 c22 -80 53 -105
121 -97 27 3 53 9 58 14 4 4 -1 35 -11 68 -35 107 -189 588 -196 612 -4 14
-14 22 -28 22 -12 0 -38 2 -57 4 -19 2 -51 2 -70 -1z m60 -181 c0 -9 15 -70
34 -134 l33 -118 -79 0 c-60 0 -79 3 -76 13 3 6 20 69 39 139 30 112 49 150
49 100z"/>
<path d="M8235 3591 l-40 -6 -3 -352 -2 -353 76 0 77 0 -6 262 -5 262 37 -90
c21 -49 73 -167 116 -261 l78 -173 94 0 93 0 -2 358 -3 357 -48 -1 c-35 0 -53
-6 -70 -23 -22 -21 -22 -26 -20 -244 2 -122 5 -233 9 -247 11 -48 -13 -5 -64
115 -56 132 -169 386 -174 390 -9 7 -108 11 -143 6z"/>
<path d="M5514 3533 c6 -58 43 -530 48 -610 l3 -41 -250 -202 c-137 -111 -255
-204 -262 -206 -10 -5 -148 53 -555 234 -112 50 -160 66 -166 58 -5 -6 -150
-292 -322 -635 -278 -556 -311 -627 -301 -648 19 -42 88 -60 306 -82 174 -18
299 13 371 91 73 78 314 428 554 806 57 89 107 159 111 155 4 -5 62 -114 129
-243 67 -129 134 -246 148 -258 28 -27 63 -25 108 5 39 25 240 269 266 321 25
53 26 125 3 268 -19 121 -56 233 -96 290 -21 32 -26 45 -17 48 7 3 66 10 131
17 106 11 120 15 137 37 29 36 33 77 21 198 -6 60 -15 164 -21 232 -5 68 -14
131 -20 141 -5 10 -26 26 -45 36 -37 17 -191 44 -253 45 l-34 0 6 -57z"/>
<path d="M8840 3525 l0 -65 90 0 90 0 0 -290 0 -290 75 0 75 0 0 290 0 290 71
0 c39 0 79 4 89 10 22 12 34 57 24 94 l-6 26 -254 0 -254 0 0 -65z"/>
<path d="M6427 3138 c-52 -24 -66 -35 -62 -47 3 -9 36 -62 72 -119 43 -69 75
-107 92 -114 27 -10 109 -4 123 10 10 10 -132 302 -146 301 -6 0 -42 -14 -79
-31z"/>
</g>
</svg>
